<?xml version="1.0" encoding="UTF-8"?>
<!DOCTYPE svg PUBLIC "-//W3C//DTD SVG 1.0//EN" "http://www.w3.org/TR/2001/REC-SVG-20010904/DTD/svg10.dtd">
<!-- Creator: CorelDRAW X8 -->
<svg xmlns="http://www.w3.org/2000/svg" xml:space="preserve" width="118.533mm" height="82.9732mm" version="1.0" style="shape-rendering:geometricPrecision; text-rendering:geometricPrecision; image-rendering:optimizeQuality; fill-rule:evenodd; clip-rule:evenodd"
viewBox="0 0 11853 8297"
 xmlns:xlink="http://www.w3.org/1999/xlink">
 <defs>
  <style type="text/css">
   <![CDATA[
    .fil2 {fill:#FEFEFE}
    .fil35 {fill:#E0DEDC}
    .fil11 {fill:#E4E1DF}
    .fil33 {fill:#00A885}
    .fil34 {fill:#08917B}
    .fil18 {fill:#171E2E}
    .fil38 {fill:#1ABC9C}
    .fil17 {fill:#28324E}
    .fil39 {fill:#2D9382}
    .fil27 {fill:#328860}
    .fil46 {fill:#3A9D63}
    .fil24 {fill:#3B397C}
    .fil26 {fill:#3B975F}
    .fil36 {fill:#3F1D27}
    .fil45 {fill:#41A85F}
    .fil15 {fill:#484699}
    .fil16 {fill:#4B58A6}
    .fil23 {fill:#542A1E}
    .fil25 {fill:#54ACD2}
    .fil14 {fill:#662C24}
    .fil47 {fill:#745248}
    .fil44 {fill:#79677F}
    .fil43 {fill:#97827B}
    .fil37 {fill:#97D1E3}
    .fil42 {fill:#A8968C}
    .fil19 {fill:#ABAFB1}
    .fil8 {fill:#B2CFEC}
    .fil21 {fill:#B8312F}
    .fil3 {fill:#B9BABA}
    .fil20 {fill:#BBBEC0}
    .fil41 {fill:#BC0F0F}
    .fil29 {fill:#BC0F45}
    .fil6 {fill:#BF3E36}
    .fil1 {fill:#C0C2C3}
    .fil40 {fill:#C32727}
    .fil7 {fill:#CBEFFF}
    .fil32 {fill:#CFC200}
    .fil0 {fill:#D1D5D8}
    .fil4 {fill:#E14938}
    .fil22 {fill:#E7692D}
    .fil28 {fill:#E81356}
    .fil5 {fill:#E97729}
    .fil10 {fill:#F29156}
    .fil9 {fill:#F6B678}
    .fil13 {fill:#F7CF9A}
    .fil30 {fill:#FAC51C}
    .fil12 {fill:#FDE5A9}
    .fil31 {fill:#FFF000}
    .fil48 {fill:#2C82C9;fill-rule:nonzero}
    .fil49 {fill:#E81356;fill-rule:nonzero}
   ]]>
  </style>
 </defs>
 <g id="Layer_x0020_1">
  <metadata id="CorelCorpID_0Corel-Layer"/>
  <rect class="fil0" width="11853" height="8297"/>
  <polygon class="fil1" points="11378,8297 10837,8297 7819,5279 7819,4738 "/>
  <polygon class="fil2" points="5013,0 5083,0 9243,4160 9208,4195 "/>
  <polygon class="fil3" points="0,424 0,353 4490,4843 4455,4878 "/>
  <polygon class="fil3" points="11853,3497 11853,4959 11023,4128 "/>
  <polygon class="fil2" points="5725,0 11853,0 11853,586 8340,2615 "/>
  <polygon class="fil3" points="1035,8297 0,8297 0,810 4261,5071 "/>
  <g id="_2245723301232">
   <circle class="fil4" cx="5927" cy="2138" r="1578"/>
   <path class="fil5" d="M4360 1947c24,-200 86,-389 178,-559 142,22 250,145 250,293 0,164 -133,297 -297,297 -47,0 -92,-11 -131,-31z"/>
   <path class="fil6" d="M7485 2390c-120,752 -772,1327 -1558,1327 -786,0 -1438,-575 -1559,-1327l288 0c253,0 1975,0 2474,0l355 0z"/>
   <path class="fil7" d="M6891 3388c-267,206 -601,329 -964,329 -363,0 -698,-123 -965,-329 0,-150 425,-290 553,-290l839 0c127,0 537,141 537,290z"/>
   <path class="fil8" d="M5927 3717c-363,0 -698,-123 -965,-329 0,-150 425,-290 553,-290l412 0 0 619z"/>
   <rect class="fil9" x="5766" y="2809" width="321" height="312"/>
   <polygon class="fil10" points="5766,2809 5927,2809 5927,3120 5766,3120 "/>
   <polygon class="fil2" points="5764,3040 5680,3074 5733,3270 5927,3218 6120,3270 6172,3074 6081,3035 5927,3105 "/>
   <polygon class="fil11" points="5764,3040 5680,3074 5733,3270 5927,3218 5927,3218 5927,3105 "/>
   <path class="fil12" d="M5927 1025c356,0 651,342 708,790 10,-4 21,-6 33,-6 62,0 113,73 113,163 0,91 -51,164 -113,164 -14,0 -27,-3 -39,-9 -38,187 -48,399 -165,532 -165,188 -450,261 -537,261 -91,0 -374,-66 -542,-266 -109,-130 -125,-351 -161,-527 -12,6 -25,9 -38,9 -63,0 -113,-73 -113,-164 0,-90 50,-163 113,-163 11,0 22,2 32,6 57,-448 352,-790 709,-790z"/>
   <path class="fil13" d="M5927 2920c-91,0 -374,-66 -542,-266 -109,-130 -125,-351 -161,-527 -12,6 -25,9 -38,9 -63,0 -113,-73 -113,-164 0,-90 50,-163 113,-163 11,0 22,2 32,6 57,-448 352,-790 709,-790l0 1895z"/>
   <path class="fil2" d="M6193 2532c0,71 -119,128 -266,128 -147,0 -267,-57 -267,-128l533 0z"/>
   <path class="fil14" d="M5374 1739c141,-136 278,-313 278,-313 0,0 175,33 443,98 267,65 320,48 320,48 28,133 145,137 138,403 22,20 23,19 57,37 18,-51 35,-106 45,-156 33,-166 8,-437 -2,-583 -9,-146 -86,-400 -566,-390 -481,10 -666,84 -666,84l-23 78 -114 -67c0,0 -2,10 -6,26 12,7 25,15 33,19 19,12 22,16 22,16 -192,41 -126,740 -115,879 1,26 2,53 7,83 21,-14 41,-29 59,-44 4,-79 28,-157 90,-218z"/>
   <circle class="fil15" cx="9623" cy="2138" r="1578"/>
   <path class="fil16" d="M9643 560c272,4 528,76 750,201 -4,102 7,243 68,402 125,322 198,249 -112,446 -310,196 410,798 135,1197 -319,305 -279,535 -235,781 -128,56 -266,95 -409,115 -107,-172 -225,-403 -257,-571 -56,-296 149,-243 138,-492 -11,-250 -115,-374 -115,-950 0,-576 64,-260 31,-663 -20,-247 16,-354 6,-466z"/>
   <path class="fil16" d="M8559 3304c-316,-288 -515,-704 -515,-1166 0,-485 220,-920 565,-1209 8,16 18,31 30,44 129,147 -9,311 -78,459 -70,147 34,199 86,493 52,294 -234,294 -242,589 -9,294 230,516 154,790z"/>
   <path class="fil17" d="M10587 3388c-267,206 -601,329 -964,329 -363,0 -698,-123 -964,-329 0,-150 425,-290 552,-290l839 0c127,0 537,141 537,290z"/>
   <path class="fil18" d="M9822 3704c-65,9 -132,13 -199,13 -68,0 -135,-5 -200,-13 -59,-100 -117,-222 -117,-222l41 -69c0,0 -119,-65 -157,-314 8,-1 15,-1 21,-1l839 0c2,0 3,0 5,0 -38,250 -157,315 -157,315l41 69c0,0 -58,122 -117,222z"/>
   <path class="fil19" d="M9695 3715c-24,1 -48,2 -72,2 -25,0 -50,-1 -75,-2l-142 -530 137 -65 295 62 -143 533z"/>
   <path class="fil20" d="M9695 3715c-24,1 -48,2 -72,2l0 -580 215 45 -143 533z"/>
   <polygon class="fil21" points="9594,3131 9709,3154 9638,3334 9673,3681 9623,3717 9573,3681 9608,3334 9538,3163 9594,3131 "/>
   <polygon class="fil4" points="9623,3137 9709,3154 9638,3334 9673,3681 9623,3717 "/>
   <rect class="fil9" x="9462" y="2809" width="321" height="312"/>
   <polygon class="fil10" points="9463,2809 9623,2809 9623,3120 9463,3120 "/>
   <polygon class="fil2" points="9460,3040 9377,3074 9429,3270 9623,3161 9785,3380 9868,3074 9777,3035 9623,3105 "/>
   <polygon class="fil11" points="9460,3040 9377,3074 9458,3380 9623,3161 9623,3161 9623,3105 "/>
   <path class="fil12" d="M9623 1025c356,0 652,342 708,790 11,-4 22,-6 33,-6 62,0 113,73 113,163 0,91 -51,164 -113,164 -14,0 -27,-3 -39,-9 -38,187 -48,399 -165,532 -165,188 -450,261 -537,261 -91,0 -373,-66 -542,-266 -109,-130 -125,-351 -161,-527 -12,6 -25,9 -38,9 -63,0 -113,-73 -113,-164 0,-90 50,-163 113,-163 11,0 22,2 32,6 57,-448 353,-790 709,-790z"/>
   <path class="fil13" d="M9623 2920c-91,0 -373,-66 -542,-266 -109,-130 -125,-351 -161,-527 -12,6 -25,9 -38,9 -63,0 -113,-73 -113,-164 0,-90 50,-163 113,-163 11,0 22,2 32,6 57,-448 353,-790 709,-790l0 1895z"/>
   <path class="fil6" d="M6993 2401l36 0 0 -81c30,-8 52,-35 52,-67 0,-38 -31,-69 -70,-69 -38,0 -69,31 -69,69 0,32 21,59 51,67l0 81z"/>
   <path class="fil22" d="M7065 1588c21,0 40,10 51,26 3,-2 7,-3 10,-4 4,-12 13,-21 25,-25 8,-25 32,-43 59,-43 33,0 61,27 62,60 7,-3 15,-4 23,-4 34,0 63,21 76,51l1 0c22,0 40,17 40,40 0,22 -18,40 -40,40 -2,0 -3,0 -4,-1 -3,27 -26,48 -54,48 -9,0 -18,-3 -26,-7 -11,22 -33,37 -59,37 -10,0 -19,-2 -27,-6 -14,6 -29,10 -45,10 -24,0 -46,-8 -63,-22 -12,11 -29,18 -46,18 -38,0 -68,-30 -68,-68 0,-23 12,-44 30,-56 -5,-9 -8,-20 -8,-31 0,-35 29,-63 63,-63z"/>
   <path class="fil2" d="M8914 1815c0,0 -43,-254 8,-411 51,-157 226,-364 324,-335 98,29 95,31 95,31 -251,171 -381,473 -388,771 0,0 -3,125 -15,145 -12,21 -21,37 -21,37 0,0 34,-137 -3,-238z"/>
   <path class="fil2" d="M10331 1815c0,0 44,-254 -7,-411 -52,-157 -226,-364 -325,-335 -98,29 -95,31 -95,31 252,171 382,473 389,771 0,0 3,125 15,145 12,21 21,37 21,37 0,0 -34,-137 2,-238z"/>
   <path class="fil23" d="M9319 2518l-5 0c0,0 2,-47 110,-49 108,-2 199,-64 199,-64 0,0 91,62 199,64 108,2 110,49 110,49l-5 0c-58,-20 -172,-34 -304,-34 -132,0 -247,14 -304,34z"/>
   <path class="fil15" d="M8323 2019c0,0 -46,-40 -37,-69 9,-29 11,-20 71,-15 59,5 37,66 28,71 -9,5 -62,13 -62,13zm90 -2c0,0 -4,60 22,74 27,15 23,7 61,-39 39,-46 -20,-73 -30,-70 -10,3 -53,35 -53,35zm-137 71c0,0 -60,4 -75,-22 -14,-27 -6,-23 40,-61 45,-39 72,20 70,30 -3,10 -35,53 -35,53zm72 -61c25,0 40,-20 45,8 5,29 4,40 -17,40 -22,0 -60,-8 -60,-8 0,0 -8,-37 32,-40zm-25 52c0,0 -46,39 -37,68 9,29 11,20 71,15 59,-5 37,-66 28,-71 -9,-5 -62,-12 -62,-12z"/>
   <path class="fil16" d="M10701 2874c0,0 -46,-40 -37,-69 9,-29 11,-20 71,-15 60,5 37,66 28,71 -9,5 -62,13 -62,13zm90 -2c0,0 -4,60 23,74 27,15 22,7 61,-39 38,-46 -21,-73 -31,-70 -10,3 -53,35 -53,35zm-137 71c0,0 -60,5 -75,-22 -14,-27 -6,-23 40,-61 46,-39 72,20 70,30 -3,10 -35,53 -35,53zm72 -61c25,0 40,-20 45,8 5,29 5,40 -17,40 -22,0 -60,-7 -60,-7 0,0 -8,-38 32,-41zm-25 52c0,0 -46,39 -37,68 9,29 11,20 71,15 60,-5 37,-66 28,-71 -9,-5 -62,-12 -62,-12z"/>
   <path class="fil24" d="M10791 1332c0,0 14,-59 44,-64 30,-6 23,0 46,56 24,55 -41,63 -50,57 -8,-5 -40,-49 -40,-49zm44 79c0,0 -55,24 -56,55 0,30 5,22 63,35 59,13 55,-51 48,-59 -7,-7 -55,-31 -55,-31zm-127 -88c0,0 -32,-52 -14,-77 17,-25 16,-16 72,7 55,23 15,74 5,76 -10,2 -63,-6 -63,-6zm88 35c11,22 36,26 13,44 -23,18 -33,22 -43,3 -10,-19 -21,-57 -21,-57 0,0 30,-24 51,10zm-58 2c0,0 -56,-23 -78,-1 -21,21 -12,19 20,70 32,50 75,2 76,-8 0,-11 -18,-61 -18,-61z"/>
   <circle class="fil25" cx="2231" cy="2138" r="1578"/>
   <path class="fil26" d="M3753 1722c36,133 56,272 56,416 0,872 -707,1579 -1578,1579 -872,0 -1579,-707 -1579,-1579 0,-26 1,-52 2,-79 172,-6 376,23 611,115 851,332 831,358 1753,-52 394,-176 613,-307 735,-400z"/>
   <path class="fil27" d="M3753 1722c36,133 56,272 56,416 0,556 -288,1045 -722,1326 -67,-153 -609,110 -612,-4 -7,-240 635,-800 933,-935 452,-206 345,-803 345,-803zm-2100 1886c-324,-128 -596,-360 -774,-655 252,51 650,156 1063,350 352,165 56,256 -289,305z"/>
   <path class="fil28" d="M3195 3388c-267,206 -601,329 -964,329 -364,0 -698,-123 -965,-329 0,-150 425,-290 553,-290l839 0c126,0 537,141 537,290z"/>
   <path class="fil9" d="M2009 3098l443 0c0,0 -1,129 -185,140 -184,10 -248,-75 -258,-140z"/>
   <path class="fil29" d="M2231 3717c-364,0 -698,-123 -965,-329 0,-150 425,-290 553,-290l412 0 0 619z"/>
   <path class="fil10" d="M2009 3098l222 0 0 140c-156,-2 -213,-80 -222,-140z"/>
   <rect class="fil9" x="2070" y="2809" width="321" height="312"/>
   <polygon class="fil10" points="2070,2809 2231,2809 2231,3120 2070,3120 "/>
   <path class="fil12" d="M2231 1025c356,0 651,342 708,790 10,-4 21,-6 32,-6 63,0 113,73 113,163 0,91 -50,164 -113,164 -13,0 -26,-3 -38,-9 -38,187 -49,399 -166,532 -164,188 -450,261 -536,261 -91,0 -374,-66 -542,-266 -109,-130 -125,-351 -161,-527 -12,6 -25,9 -38,9 -63,0 -113,-73 -113,-164 0,-90 50,-163 113,-163 11,0 22,2 32,6 57,-448 352,-790 709,-790z"/>
   <path class="fil13" d="M2231 2920c-91,0 -374,-66 -542,-266 -109,-130 -125,-351 -161,-527 -12,6 -25,9 -38,9 -63,0 -113,-73 -113,-164 0,-90 50,-163 113,-163 11,0 22,2 32,6 57,-448 352,-790 709,-790l0 1895z"/>
   <path class="fil2" d="M2497 2532c0,71 -119,128 -266,128 -148,0 -267,-57 -267,-128l533 0z"/>
   <path class="fil30" d="M1522 1815c0,0 0,-316 0,-543 0,-227 340,-437 571,-437 231,0 400,0 400,0l-51 90c0,0 134,-74 275,-74 142,0 199,0 199,0l-158 91c0,0 138,2 177,-24 39,-26 52,-42 52,-42 106,622 -69,652 -32,934l-109 164 0 -261c-82,-234 -142,-125 -155,-353l-460 0 -386 0c-17,230 -75,205 -209,353l-15 248 -99 -146z"/>
   <path class="fil31" d="M2452 3098c8,18 13,37 13,57 0,20 -4,38 -12,56 -46,50 -129,83 -222,83 -94,0 -177,-33 -223,-83 -8,-18 -12,-36 -12,-56 0,-20 5,-39 13,-57 32,69 119,118 222,118 102,0 189,-49 221,-118z"/>
   <path class="fil32" d="M2231 3294c-94,0 -177,-33 -223,-83 -8,-18 -12,-36 -12,-56 0,-20 5,-39 13,-57 32,69 119,118 222,118l0 78z"/>
   <circle class="fil25" cx="2231" cy="6159" r="1578"/>
   <path class="fil7" d="M3761 6547c-173,684 -793,1190 -1530,1190 -562,0 -1055,-293 -1335,-734 243,-5 578,-44 1038,-145 892,-193 1473,-276 1827,-311z"/>
   <path class="fil33" d="M3195 7408c-267,207 -601,329 -964,329 -364,0 -698,-122 -965,-329 0,-149 425,-290 553,-290l839 0c126,0 537,142 537,290z"/>
   <path class="fil9" d="M2009 7118l443 0c0,0 -1,130 -185,140 -184,10 -248,-74 -258,-140z"/>
   <path class="fil34" d="M2231 7737c-364,0 -698,-122 -965,-329 0,-149 425,-290 553,-290l412 0 0 619z"/>
   <path class="fil10" d="M2009 7118l222 0 0 141c-156,-3 -213,-80 -222,-141z"/>
   <rect class="fil9" x="2070" y="6829" width="321" height="312"/>
   <polygon class="fil10" points="2070,6829 2231,6829 2231,7141 2070,7141 "/>
   <path class="fil12" d="M2231 5045c356,0 651,342 708,791 10,-5 21,-7 32,-7 63,0 113,73 113,164 0,90 -50,164 -113,164 -13,0 -26,-4 -38,-10 -38,187 -49,400 -166,533 -164,187 -450,260 -536,260 -91,0 -374,-65 -542,-266 -109,-129 -125,-350 -161,-527 -12,6 -25,10 -38,10 -63,0 -113,-74 -113,-164 0,-91 50,-164 113,-164 11,0 22,2 32,7 57,-449 352,-791 709,-791z"/>
   <polygon class="fil35" points="2083,7118 1953,7118 2243,7361 2243,7237 "/>
   <path class="fil36" d="M2006 7721c-248,-35 -477,-128 -673,-264 65,-144 235,-558 150,-778 -138,-359 -58,-569 -58,-569l66 -46 669 744 -6 21 -84 0 0 480c-11,189 -39,326 -64,412z"/>
   <path class="fil13" d="M2231 6940c-91,0 -374,-65 -542,-266 -109,-129 -125,-350 -161,-527 -12,6 -25,10 -38,10 -63,0 -113,-74 -113,-164 0,-91 50,-164 113,-164 11,0 22,2 32,7 57,-449 352,-791 709,-791l0 1895z"/>
   <path class="fil2" d="M2497 6553c0,71 -119,128 -266,128 -148,0 -267,-57 -267,-128l533 0z"/>
   <path class="fil36" d="M1430 5853c-189,-1302 1762,-1222 1593,-6 -3,22 -170,42 -236,-58l0 -1c-73,-97 -109,-265 -223,-345 -178,236 -373,150 -668,168 -225,14 -128,242 -314,415l-152 -173z"/>
   <polygon class="fil2" points="2391,7118 2521,7118 2231,7361 2231,7237 "/>
   <path class="fil37" d="M853 5786c29,0 55,14 70,36 5,-2 10,-4 15,-5 5,-17 18,-30 34,-35 12,-35 44,-60 82,-60 47,0 85,37 87,83 10,-3 20,-5 31,-5 48,0 88,29 106,70l1 0c31,0 56,25 56,56 0,31 -25,56 -56,56 -1,0 -3,-1 -5,-1 -5,38 -37,66 -75,66 -13,0 -25,-3 -36,-9 -15,30 -46,51 -82,51 -14,0 -27,-3 -38,-8 -19,9 -40,14 -62,14 -34,0 -64,-12 -89,-31 -16,16 -39,25 -64,25 -52,0 -94,-42 -94,-94 0,-33 17,-61 42,-78 -7,-13 -11,-28 -11,-43 0,-49 39,-88 88,-88z"/>
   <circle class="fil38" cx="5927" cy="6159" r="1578"/>
   <path class="fil39" d="M5927 4581c3,0 7,0 10,0 -27,165 -63,538 -10,1207 61,779 174,1645 49,1948 -16,1 -33,1 -49,1 -466,0 -884,-201 -1173,-522 -6,-132 -14,-291 -25,-479 -30,-504 -87,-1028 -137,-1420 280,-442 773,-735 1335,-735zm984 344c264,211 459,504 545,842 -38,371 -88,779 -133,1128 -136,257 -340,472 -589,621l-257 -140c0,0 261,-664 301,-1351 21,-349 80,-770 133,-1100z"/>
   <path class="fil23" d="M5129 6135c0,0 -166,114 -60,420 107,306 88,510 9,643 -79,132 40,159 40,159l648 -216 0 -485 -453 -562 -184 41zm1595 0c0,0 166,114 60,420 -106,306 -88,510 -9,643 79,132 -40,159 -40,159l-648 -216 0 -485 453 -562 184 41z"/>
   <path class="fil40" d="M6891 7408c-267,207 -601,329 -964,329 -363,0 -698,-122 -965,-329 0,-149 425,-290 553,-290l839 0c127,0 537,142 537,290z"/>
   <path class="fil9" d="M6891 7408c-71,55 -146,104 -226,146 -89,-309 -253,-430 -253,-430l0 0c163,29 479,154 479,284z"/>
   <path class="fil41" d="M5927 7737c-363,0 -698,-122 -965,-329 0,-149 425,-290 553,-290l412 0 0 619z"/>
   <path class="fil10" d="M5200 7560c-84,-43 -163,-94 -238,-152 0,-131 326,-255 493,-284 0,1 -167,123 -255,436z"/>
   <rect class="fil9" x="5766" y="6829" width="321" height="312"/>
   <polygon class="fil10" points="5766,6829 5927,6829 5927,7141 5766,7141 "/>
   <path class="fil12" d="M5927 5045c356,0 651,342 708,791 10,-5 21,-7 33,-7 62,0 113,73 113,164 0,90 -51,164 -113,164 -14,0 -27,-4 -39,-10 -38,187 -48,400 -165,533 -165,187 -450,260 -537,260 -91,0 -374,-65 -542,-266 -109,-129 -125,-350 -161,-527 -12,6 -25,10 -38,10 -63,0 -113,-74 -113,-164 0,-91 50,-164 113,-164 11,0 22,2 32,7 57,-449 352,-791 709,-791z"/>
   <path class="fil13" d="M5927 6940c-91,0 -374,-65 -542,-266 -109,-129 -125,-350 -161,-527 -12,6 -25,10 -38,10 -63,0 -113,-74 -113,-164 0,-91 50,-164 113,-164 11,0 22,2 32,7 57,-449 352,-791 709,-791l0 1895z"/>
   <path class="fil2" d="M6193 6553c0,71 -119,128 -266,128 -147,0 -267,-57 -267,-128l533 0z"/>
   <path class="fil23" d="M5132 5853c-190,-1302 1761,-1222 1592,-6 -3,22 -170,42 -236,-58l0 -1c-72,-97 -108,-265 -222,-345 -178,236 -374,150 -668,168 -226,14 -129,242 -315,415l-151 -173z"/>
   <polygon class="fil10" points="5721,7118 5927,7600 5927,7118 "/>
   <polygon class="fil9" points="6133,7118 5927,7600 5927,7118 "/>
   <path class="fil38" d="M7011 5980c38,0 85,20 85,20 0,0 -27,85 -47,85 -21,0 -75,-24 -38,-105z"/>
   <path class="fil38" d="M4868 6959c38,0 85,-20 85,-20 0,0 -27,-85 -47,-85 -21,0 -75,24 -38,105z"/>
   <path class="fil39" d="M6363 4902c37,0 84,-20 84,-20 0,0 -27,-85 -47,-85 -20,0 -74,24 -37,105z"/>
   <circle class="fil42" cx="9623" cy="6159" r="1578"/>
   <path class="fil43" d="M11090 6743c-232,582 -802,994 -1467,994 -872,0 -1579,-706 -1579,-1578 0,-39 2,-77 5,-115 1017,204 2033,447 3041,699z"/>
   <path class="fil44" d="M11066 6798c-245,553 -799,939 -1443,939 -755,0 -1386,-530 -1542,-1238 1045,3 1953,131 2985,299z"/>
   <path class="fil45" d="M10587 7408c-267,207 -601,329 -964,329 -363,0 -698,-122 -964,-329 0,-149 425,-290 552,-290l839 0c127,0 537,142 537,290z"/>
   <path class="fil46" d="M9623 7737c-363,0 -698,-122 -964,-329 0,-149 425,-290 552,-290l412 0 0 619z"/>
   <path class="fil10" d="M8875 7549c-76,-41 -148,-88 -216,-141 0,-133 339,-260 502,-285 -63,62 -165,113 -286,426z"/>
   <path class="fil9" d="M10587 7408c-70,54 -144,102 -222,144 -124,-321 -228,-368 -290,-433 148,15 512,149 512,289z"/>
   <path class="fil10" d="M9318 7118l610 0c-26,145 -153,255 -305,255 -153,0 -279,-110 -305,-255z"/>
   <path class="fil9" d="M9623 7118l305 0c-26,145 -153,255 -305,255l0 -255z"/>
   <rect class="fil9" x="9462" y="6829" width="321" height="312"/>
   <polygon class="fil10" points="9463,6829 9623,6829 9623,7141 9463,7141 "/>
   <path class="fil12" d="M9623 5045c356,0 652,342 708,791 11,-5 22,-7 33,-7 62,0 113,73 113,164 0,90 -51,164 -113,164 -14,0 -27,-4 -39,-10 -38,187 -48,400 -165,533 -165,187 -450,260 -537,260 -91,0 -373,-65 -542,-266 -109,-129 -125,-350 -161,-527 -12,6 -25,10 -38,10 -63,0 -113,-74 -113,-164 0,-91 50,-164 113,-164 11,0 22,2 32,7 57,-449 353,-791 709,-791z"/>
   <path class="fil13" d="M9623 6940c-91,0 -373,-65 -542,-266 -109,-129 -125,-350 -161,-527 -12,6 -25,10 -38,10 -63,0 -113,-74 -113,-164 0,-91 50,-164 113,-164 11,0 22,2 32,7 57,-449 353,-791 709,-791l0 1895z"/>
   <path class="fil2" d="M9889 6553c0,71 -119,128 -266,128 -147,0 -267,-57 -267,-128l533 0z"/>
   <path class="fil47" d="M10418 5853c189,-1302 -1762,-1222 -1593,-6 3,22 170,42 236,-58l0 -1c73,-97 109,-265 223,-345 178,236 373,150 668,168 225,14 128,242 314,415l152 -173z"/>
   <circle class="fil47" cx="9636" cy="4983" r="203"/>
  </g>
  <g id="_2245723298672">
   <path class="fil48" d="M5280 8029l4 -43 5 0 4 43 -13 0zm-32 -80l-20 128 0 18 45 0 3 -29 20 0 3 29 45 0 0 -18 -20 -128 -76 0z"/>
   <polygon id="1" class="fil48" points="5365,8095 5434,8095 5457,7961 5457,7949 5412,7949 5402,8059 5397,8059 5388,7949 5342,7949 5342,7961 "/>
   <path id="2" class="fil48" d="M5506 8029l4 -43 5 0 5 43 -14 0zm-31 -80l-20 128 0 18 45 0 3 -29 20 0 3 29 45 0 0 -18 -20 -128 -76 0z"/>
   <polygon id="3" class="fil48" points="5596,7986 5596,8095 5642,8095 5642,7986 5663,7986 5671,7968 5671,7949 5569,7949 5569,7986 "/>
   <path id="4" class="fil48" d="M5718 8029l4 -43 5 0 4 43 -13 0zm-31 -80l-20 128 0 18 45 0 3 -29 20 0 2 29 46 0 0 -18 -20 -128 -76 0z"/>
   <path id="5" class="fil48" d="M5859 7986l0 27 -18 0 0 -27 18 0zm-64 -37l0 146 46 0 0 -45 9 0 12 45 45 0 0 -18 -15 -36c7,-2 12,-9 12,-16l0 -57c0,-11 -7,-19 -18,-19l-91 0z"/>
   <polygon class="fil49" points="5967,8095 5938,8095 5938,7949 6040,7949 6040,7979 5967,7979 5967,8008 6011,8008 6011,8037 5967,8037 "/>
   <path id="1" class="fil49" d="M6137 8037l0 -29c0,-4 -1,-8 -2,-12 -2,-3 -4,-6 -6,-9 -3,-3 -6,-5 -10,-6 -3,-2 -7,-2 -11,-2 -4,0 -8,0 -11,2 -4,1 -7,3 -10,6 -2,3 -4,6 -6,9 -1,4 -2,8 -2,12l0 29 58 0zm29 58l-29 0 0 -29 -58 0 0 29 -29 0 0 -87c0,-8 1,-16 5,-23 3,-7 7,-13 12,-19 5,-5 11,-9 18,-12 7,-3 15,-5 23,-5 8,0 16,2 23,5 7,3 13,7 18,12 6,6 10,12 13,19 3,7 4,15 4,23l0 87z"/>
   <path id="2" class="fil49" d="M6336 8095l-29 0 0 -104c0,-2 -1,-4 -1,-6 -1,-1 -2,-3 -3,-4 -2,-2 -3,-3 -5,-3 -2,-1 -4,-2 -6,-2 -2,0 -4,1 -5,2 -2,0 -4,1 -5,3 -1,1 -2,3 -3,4 -1,2 -1,4 -1,6l0 104 -29 0 0 -104c0,-2 -1,-4 -1,-6 -1,-1 -2,-3 -4,-4 -1,-2 -2,-3 -4,-3 -2,-1 -4,-2 -6,-2 -2,0 -4,1 -6,2 -1,0 -3,1 -4,3 -1,1 -2,3 -3,4 -1,2 -1,4 -1,6l0 104 -29 0 0 -104c0,-6 1,-12 3,-17 2,-5 5,-10 9,-14 4,-4 9,-7 14,-9 5,-2 11,-4 17,-4 6,0 11,1 16,3 5,2 9,5 13,9 4,-4 9,-7 14,-9 5,-2 10,-3 15,-3 6,0 12,2 17,4 6,2 10,5 14,9 4,4 7,9 9,14 3,5 4,11 4,17l0 104z"/>
   <polygon id="3" class="fil49" points="6391,8095 6362,8095 6362,7949 6391,7949 "/>
   <polygon id="4" class="fil49" points="6520,8095 6418,8095 6418,7949 6447,7949 6447,8066 6520,8066 "/>
   <path id="5" class="fil49" d="M6582 8095l-29 0 0 -46c-7,-1 -13,-4 -18,-7 -5,-4 -10,-8 -14,-13 -4,-5 -7,-11 -9,-17 -2,-6 -3,-12 -3,-19l0 -44 29 0 0 44c0,4 1,8 2,11 2,4 4,7 7,10 2,2 5,4 9,6 3,1 7,2 11,2 4,0 8,-1 11,-2 4,-2 7,-4 10,-6 2,-3 4,-6 6,-10 1,-3 2,-7 2,-11l0 -44 29 0 0 44c0,7 -1,13 -3,19 -2,6 -5,12 -9,17 -4,5 -8,9 -14,13 -5,3 -11,6 -17,7l0 46z"/>
  </g>
 </g>
</svg>
